<?xml version="1.0" encoding="UTF-8" standalone="no"?>
<!DOCTYPE svg PUBLIC "-//W3C//DTD SVG 1.1//EN"
 "http://www.w3.org/Graphics/SVG/1.1/DTD/svg11.dtd">
<!-- Generated by graphviz version 2.43.0 (0)
 -->
<!-- Title: %3 Pages: 1 -->
<svg width="2041pt" height="210pt"
 viewBox="0.00 0.00 2040.69 210.00" xmlns="http://www.w3.org/2000/svg" xmlns:xlink="http://www.w3.org/1999/xlink">
<g id="graph0" class="graph" transform="scale(1 1) rotate(0) translate(4 206)">
<title>%3</title>
<polygon fill="white" stroke="transparent" points="-4,4 -4,-206 2036.69,-206 2036.69,4 -4,4"/>
<!-- 131245394432592 -->
<g id="node1" class="node">
<title>131245394432592</title>
<polygon fill="none" stroke="black" points="4,-165.5 4,-201.5 253,-201.5 253,-165.5 4,-165.5"/>
<text text-anchor="middle" x="21" y="-179.8" font-family="Times,serif" font-size="14.00">x1</text>
<polyline fill="none" stroke="black" points="38,-165.5 38,-201.5 "/>
<text text-anchor="middle" x="91.5" y="-179.8" font-family="Times,serif" font-size="14.00">data: 2.0000</text>
<polyline fill="none" stroke="black" points="145,-165.5 145,-201.5 "/>
<text text-anchor="middle" x="199" y="-179.8" font-family="Times,serif" font-size="14.00">grad: 0.0000</text>
</g>
<!-- 131245316796160* -->
<g id="node8" class="node">
<title>131245316796160*</title>
<ellipse fill="none" stroke="black" cx="320" cy="-128.5" rx="27" ry="18"/>
<text text-anchor="middle" x="320" y="-124.8" font-family="Times,serif" font-size="14.00">*</text>
</g>
<!-- 131245394432592&#45;&gt;131245316796160* -->
<g id="edge6" class="edge">
<title>131245394432592&#45;&gt;131245316796160*</title>
<path fill="none" stroke="black" d="M225.82,-165.43C236.43,-162.75 247,-159.77 257,-156.5 267.72,-152.99 279.07,-148.2 289.08,-143.58"/>
<polygon fill="black" stroke="black" points="290.68,-146.7 298.21,-139.25 287.68,-140.37 290.68,-146.7"/>
</g>
<!-- 131245438493776 -->
<g id="node2" class="node">
<title>131245438493776</title>
<polygon fill="none" stroke="black" points="2,-55.5 2,-91.5 255,-91.5 255,-55.5 2,-55.5"/>
<text text-anchor="middle" x="21" y="-69.8" font-family="Times,serif" font-size="14.00">w2</text>
<polyline fill="none" stroke="black" points="40,-55.5 40,-91.5 "/>
<text text-anchor="middle" x="93.5" y="-69.8" font-family="Times,serif" font-size="14.00">data: 1.0000</text>
<polyline fill="none" stroke="black" points="147,-55.5 147,-91.5 "/>
<text text-anchor="middle" x="201" y="-69.8" font-family="Times,serif" font-size="14.00">grad: 0.0000</text>
</g>
<!-- 131245316796688* -->
<g id="node10" class="node">
<title>131245316796688*</title>
<ellipse fill="none" stroke="black" cx="320" cy="-73.5" rx="27" ry="18"/>
<text text-anchor="middle" x="320" y="-69.8" font-family="Times,serif" font-size="14.00">*</text>
</g>
<!-- 131245438493776&#45;&gt;131245316796688* -->
<g id="edge7" class="edge">
<title>131245438493776&#45;&gt;131245316796688*</title>
<path fill="none" stroke="black" d="M255.11,-73.5C265.04,-73.5 274.47,-73.5 282.88,-73.5"/>
<polygon fill="black" stroke="black" points="282.96,-77 292.96,-73.5 282.96,-70 282.96,-77"/>
</g>
<!-- 131245316794960 -->
<g id="node3" class="node">
<title>131245316794960</title>
<polygon fill="none" stroke="black" points="4,-0.5 4,-36.5 253,-36.5 253,-0.5 4,-0.5"/>
<text text-anchor="middle" x="21" y="-14.8" font-family="Times,serif" font-size="14.00">x2</text>
<polyline fill="none" stroke="black" points="38,-0.5 38,-36.5 "/>
<text text-anchor="middle" x="91.5" y="-14.8" font-family="Times,serif" font-size="14.00">data: 0.0000</text>
<polyline fill="none" stroke="black" points="145,-0.5 145,-36.5 "/>
<text text-anchor="middle" x="199" y="-14.8" font-family="Times,serif" font-size="14.00">grad: 0.0000</text>
</g>
<!-- 131245316794960&#45;&gt;131245316796688* -->
<g id="edge12" class="edge">
<title>131245316794960&#45;&gt;131245316796688*</title>
<path fill="none" stroke="black" d="M222,-36.58C233.87,-39.55 245.79,-42.87 257,-46.5 267.47,-49.89 278.59,-54.42 288.47,-58.8"/>
<polygon fill="black" stroke="black" points="287.33,-62.12 297.88,-63.08 290.22,-55.75 287.33,-62.12"/>
</g>
<!-- 131245527679104 -->
<g id="node4" class="node">
<title>131245527679104</title>
<polygon fill="none" stroke="black" points="0,-110.5 0,-146.5 257,-146.5 257,-110.5 0,-110.5"/>
<text text-anchor="middle" x="19" y="-124.8" font-family="Times,serif" font-size="14.00">w1</text>
<polyline fill="none" stroke="black" points="38,-110.5 38,-146.5 "/>
<text text-anchor="middle" x="93.5" y="-124.8" font-family="Times,serif" font-size="14.00">data: &#45;3.0000</text>
<polyline fill="none" stroke="black" points="149,-110.5 149,-146.5 "/>
<text text-anchor="middle" x="203" y="-124.8" font-family="Times,serif" font-size="14.00">grad: 0.0000</text>
</g>
<!-- 131245527679104&#45;&gt;131245316796160* -->
<g id="edge11" class="edge">
<title>131245527679104&#45;&gt;131245316796160*</title>
<path fill="none" stroke="black" d="M257.21,-128.5C266.39,-128.5 275.09,-128.5 282.91,-128.5"/>
<polygon fill="black" stroke="black" points="283,-132 293,-128.5 283,-125 283,-132"/>
</g>
<!-- 131245316796640 -->
<g id="node5" class="node">
<title>131245316796640</title>
<polygon fill="none" stroke="black" points="783,-82.5 783,-118.5 1127,-118.5 1127,-82.5 783,-82.5"/>
<text text-anchor="middle" x="845.5" y="-96.8" font-family="Times,serif" font-size="14.00">(x1w1 + x2w2)</text>
<polyline fill="none" stroke="black" points="908,-82.5 908,-118.5 "/>
<text text-anchor="middle" x="963.5" y="-96.8" font-family="Times,serif" font-size="14.00">data: &#45;6.0000</text>
<polyline fill="none" stroke="black" points="1019,-82.5 1019,-118.5 "/>
<text text-anchor="middle" x="1073" y="-96.8" font-family="Times,serif" font-size="14.00">grad: 0.0000</text>
</g>
<!-- 131245316796736+ -->
<g id="node12" class="node">
<title>131245316796736+</title>
<ellipse fill="none" stroke="black" cx="1190" cy="-72.5" rx="27" ry="18"/>
<text text-anchor="middle" x="1190" y="-68.8" font-family="Times,serif" font-size="14.00">+</text>
</g>
<!-- 131245316796640&#45;&gt;131245316796736+ -->
<g id="edge14" class="edge">
<title>131245316796640&#45;&gt;131245316796736+</title>
<path fill="none" stroke="black" d="M1105.87,-82.49C1123.29,-80.4 1139.63,-78.43 1153.14,-76.81"/>
<polygon fill="black" stroke="black" points="1153.81,-80.25 1163.32,-75.59 1152.98,-73.3 1153.81,-80.25"/>
</g>
<!-- 131245316796640+ -->
<g id="node6" class="node">
<title>131245316796640+</title>
<ellipse fill="none" stroke="black" cx="720" cy="-100.5" rx="27" ry="18"/>
<text text-anchor="middle" x="720" y="-96.8" font-family="Times,serif" font-size="14.00">+</text>
</g>
<!-- 131245316796640+&#45;&gt;131245316796640 -->
<g id="edge1" class="edge">
<title>131245316796640+&#45;&gt;131245316796640</title>
<path fill="none" stroke="black" d="M747.28,-100.5C754.61,-100.5 763.17,-100.5 772.55,-100.5"/>
<polygon fill="black" stroke="black" points="772.62,-104 782.62,-100.5 772.62,-97 772.62,-104"/>
</g>
<!-- 131245316796160 -->
<g id="node7" class="node">
<title>131245316796160</title>
<polygon fill="none" stroke="black" points="383,-110.5 383,-146.5 657,-146.5 657,-110.5 383,-110.5"/>
<text text-anchor="middle" x="410.5" y="-124.8" font-family="Times,serif" font-size="14.00">x1w1</text>
<polyline fill="none" stroke="black" points="438,-110.5 438,-146.5 "/>
<text text-anchor="middle" x="493.5" y="-124.8" font-family="Times,serif" font-size="14.00">data: &#45;6.0000</text>
<polyline fill="none" stroke="black" points="549,-110.5 549,-146.5 "/>
<text text-anchor="middle" x="603" y="-124.8" font-family="Times,serif" font-size="14.00">grad: 0.0000</text>
</g>
<!-- 131245316796160&#45;&gt;131245316796640+ -->
<g id="edge8" class="edge">
<title>131245316796160&#45;&gt;131245316796640+</title>
<path fill="none" stroke="black" d="M648.36,-110.49C660.95,-108.71 672.87,-107.02 683.21,-105.56"/>
<polygon fill="black" stroke="black" points="683.97,-108.99 693.38,-104.12 682.99,-102.06 683.97,-108.99"/>
</g>
<!-- 131245316796160*&#45;&gt;131245316796160 -->
<g id="edge2" class="edge">
<title>131245316796160*&#45;&gt;131245316796160</title>
<path fill="none" stroke="black" d="M347.29,-128.5C354.71,-128.5 363.34,-128.5 372.71,-128.5"/>
<polygon fill="black" stroke="black" points="372.72,-132 382.72,-128.5 372.72,-125 372.72,-132"/>
</g>
<!-- 131245316796688 -->
<g id="node9" class="node">
<title>131245316796688</title>
<polygon fill="none" stroke="black" points="385,-55.5 385,-91.5 655,-91.5 655,-55.5 385,-55.5"/>
<text text-anchor="middle" x="412.5" y="-69.8" font-family="Times,serif" font-size="14.00">x2w2</text>
<polyline fill="none" stroke="black" points="440,-55.5 440,-91.5 "/>
<text text-anchor="middle" x="493.5" y="-69.8" font-family="Times,serif" font-size="14.00">data: 0.0000</text>
<polyline fill="none" stroke="black" points="547,-55.5 547,-91.5 "/>
<text text-anchor="middle" x="601" y="-69.8" font-family="Times,serif" font-size="14.00">grad: 0.0000</text>
</g>
<!-- 131245316796688&#45;&gt;131245316796640+ -->
<g id="edge9" class="edge">
<title>131245316796688&#45;&gt;131245316796640+</title>
<path fill="none" stroke="black" d="M653.07,-91.51C663.98,-93 674.29,-94.4 683.36,-95.64"/>
<polygon fill="black" stroke="black" points="683.04,-99.13 693.42,-97.01 683.99,-92.19 683.04,-99.13"/>
</g>
<!-- 131245316796688*&#45;&gt;131245316796688 -->
<g id="edge3" class="edge">
<title>131245316796688*&#45;&gt;131245316796688</title>
<path fill="none" stroke="black" d="M347.29,-73.5C355.18,-73.5 364.45,-73.5 374.51,-73.5"/>
<polygon fill="black" stroke="black" points="374.82,-77 384.82,-73.5 374.82,-70 374.82,-77"/>
</g>
<!-- 131245316796736 -->
<g id="node11" class="node">
<title>131245316796736</title>
<polygon fill="none" stroke="black" points="1253,-54.5 1253,-90.5 1633,-90.5 1633,-54.5 1253,-54.5"/>
<text text-anchor="middle" x="1335.5" y="-68.8" font-family="Times,serif" font-size="14.00">((x1w1 + x2w2) + b)</text>
<polyline fill="none" stroke="black" points="1418,-54.5 1418,-90.5 "/>
<text text-anchor="middle" x="1471.5" y="-68.8" font-family="Times,serif" font-size="14.00">data: 0.8814</text>
<polyline fill="none" stroke="black" points="1525,-54.5 1525,-90.5 "/>
<text text-anchor="middle" x="1579" y="-68.8" font-family="Times,serif" font-size="14.00">grad: 0.0000</text>
</g>
<!-- 131245316796784tanh -->
<g id="node15" class="node">
<title>131245316796784tanh</title>
<ellipse fill="none" stroke="black" cx="1700.85" cy="-72.5" rx="31.7" ry="18"/>
<text text-anchor="middle" x="1700.85" y="-68.8" font-family="Times,serif" font-size="14.00">tanh</text>
</g>
<!-- 131245316796736&#45;&gt;131245316796784tanh -->
<g id="edge13" class="edge">
<title>131245316796736&#45;&gt;131245316796784tanh</title>
<path fill="none" stroke="black" d="M1633.29,-72.5C1642.38,-72.5 1650.92,-72.5 1658.67,-72.5"/>
<polygon fill="black" stroke="black" points="1658.71,-76 1668.71,-72.5 1658.71,-69 1658.71,-76"/>
</g>
<!-- 131245316796736+&#45;&gt;131245316796736 -->
<g id="edge4" class="edge">
<title>131245316796736+&#45;&gt;131245316796736</title>
<path fill="none" stroke="black" d="M1217.39,-72.5C1224.72,-72.5 1233.29,-72.5 1242.73,-72.5"/>
<polygon fill="black" stroke="black" points="1242.86,-76 1252.86,-72.5 1242.86,-69 1242.86,-76"/>
</g>
<!-- 131245316524368 -->
<g id="node13" class="node">
<title>131245316524368</title>
<polygon fill="none" stroke="black" points="834.5,-27.5 834.5,-63.5 1075.5,-63.5 1075.5,-27.5 834.5,-27.5"/>
<text text-anchor="middle" x="847.5" y="-41.8" font-family="Times,serif" font-size="14.00">b</text>
<polyline fill="none" stroke="black" points="860.5,-27.5 860.5,-63.5 "/>
<text text-anchor="middle" x="914" y="-41.8" font-family="Times,serif" font-size="14.00">data: 6.8814</text>
<polyline fill="none" stroke="black" points="967.5,-27.5 967.5,-63.5 "/>
<text text-anchor="middle" x="1021.5" y="-41.8" font-family="Times,serif" font-size="14.00">grad: 0.0000</text>
</g>
<!-- 131245316524368&#45;&gt;131245316796736+ -->
<g id="edge10" class="edge">
<title>131245316524368&#45;&gt;131245316796736+</title>
<path fill="none" stroke="black" d="M1075.57,-59.36C1103.86,-62.63 1131.92,-65.89 1153.05,-68.33"/>
<polygon fill="black" stroke="black" points="1152.79,-71.83 1163.13,-69.5 1153.6,-64.87 1152.79,-71.83"/>
</g>
<!-- 131245316796784 -->
<g id="node14" class="node">
<title>131245316796784</title>
<polygon fill="none" stroke="black" points="1768.69,-54.5 1768.69,-90.5 2032.69,-90.5 2032.69,-54.5 1768.69,-54.5"/>
<text text-anchor="middle" x="1793.19" y="-68.8" font-family="Times,serif" font-size="14.00">logit</text>
<polyline fill="none" stroke="black" points="1817.69,-54.5 1817.69,-90.5 "/>
<text text-anchor="middle" x="1871.19" y="-68.8" font-family="Times,serif" font-size="14.00">data: 0.7071</text>
<polyline fill="none" stroke="black" points="1924.69,-54.5 1924.69,-90.5 "/>
<text text-anchor="middle" x="1978.69" y="-68.8" font-family="Times,serif" font-size="14.00">grad: 0.0000</text>
</g>
<!-- 131245316796784tanh&#45;&gt;131245316796784 -->
<g id="edge5" class="edge">
<title>131245316796784tanh&#45;&gt;131245316796784</title>
<path fill="none" stroke="black" d="M1732.76,-72.5C1740.34,-72.5 1748.96,-72.5 1758.18,-72.5"/>
<polygon fill="black" stroke="black" points="1758.42,-76 1768.42,-72.5 1758.42,-69 1758.42,-76"/>
</g>
</g>
</svg>
